<svg width="20" height="18" viewBox="0 0 20 18" fill="none" xmlns="http://www.w3.org/2000/svg">
<path d="M18.8248 4.32272C19.1225 4.74683 19.1894 5.22674 19.0257 5.76245L15.9565 15.8741C15.8152 16.3502 15.5306 16.7502 15.1027 17.0738C14.6749 17.3975 14.2192 17.5593 13.7356 17.5593H3.43422C2.8613 17.5593 2.30885 17.3603 1.77685 16.9622C1.24486 16.5642 0.874696 16.075 0.666363 15.4946C0.487791 14.9961 0.480351 14.5236 0.644041 14.0772C0.644041 14.0474 0.655202 13.947 0.677524 13.7758C0.699845 13.6047 0.714726 13.4671 0.722166 13.3629C0.729607 13.3034 0.718446 13.2234 0.688684 13.1229C0.658922 13.0225 0.647762 12.95 0.655202 12.9053C0.670083 12.8235 0.699845 12.7453 0.744488 12.6709C0.789131 12.5965 0.850515 12.5091 0.92864 12.4087C1.00676 12.3082 1.06815 12.2208 1.11279 12.1464C1.28392 11.8636 1.45133 11.5232 1.61502 11.1252C1.77871 10.7271 1.89032 10.3867 1.94985 10.104C1.97217 10.0296 1.97403 9.91796 1.95543 9.76915C1.93682 9.62034 1.93496 9.51617 1.94985 9.45665C1.97217 9.3748 2.03541 9.27064 2.13958 9.14415C2.24374 9.01766 2.30699 8.93209 2.32931 8.88745C2.48556 8.61959 2.64181 8.27733 2.79806 7.86067C2.95431 7.444 3.04732 7.10918 3.07708 6.8562C3.08452 6.78924 3.07522 6.67019 3.04918 6.49906C3.02313 6.32793 3.02499 6.22376 3.05476 6.18656C3.08452 6.08983 3.16636 5.97637 3.30029 5.84616C3.43422 5.71595 3.51607 5.63224 3.54583 5.59504C3.6872 5.40159 3.84531 5.08723 4.02016 4.65196C4.19501 4.21669 4.29732 3.85769 4.32708 3.57495C4.33452 3.51543 4.32336 3.42056 4.2936 3.29035C4.26383 3.16015 4.25639 3.06156 4.27127 2.99459C4.28615 2.93507 4.31964 2.86811 4.37172 2.7937C4.4238 2.7193 4.49077 2.63373 4.57261 2.53701C4.65446 2.44028 4.7177 2.36215 4.76235 2.30263C4.82187 2.21334 4.88325 2.09988 4.9465 1.96223C5.00974 1.82458 5.06554 1.69437 5.11391 1.5716C5.16227 1.44884 5.22179 1.31491 5.29248 1.16982C5.36316 1.02473 5.43571 0.905682 5.51011 0.812675C5.58452 0.719669 5.6831 0.632244 5.80587 0.550398C5.92864 0.468554 6.06257 0.42577 6.20766 0.42205C6.35275 0.418329 6.52946 0.438791 6.73779 0.483435L6.72663 0.516916C7.00937 0.449953 7.1991 0.41647 7.29583 0.41647H15.7891C16.3397 0.41647 16.7638 0.624804 17.0615 1.04147C17.3591 1.45814 17.426 1.94177 17.2623 2.49236L14.2043 12.604C13.9365 13.4894 13.6705 14.0604 13.4063 14.3171C13.1422 14.5738 12.6641 14.7022 11.9722 14.7022H2.27351C2.07261 14.7022 1.93124 14.758 1.8494 14.8696C1.76755 14.9886 1.76383 15.1486 1.83824 15.3495C2.01681 15.8703 2.55252 16.1308 3.44538 16.1308H13.7467C13.9625 16.1308 14.1708 16.0731 14.3717 15.9578C14.5726 15.8424 14.7028 15.688 14.7623 15.4946L18.1106 4.47897C18.1626 4.31528 18.1812 4.10323 18.1664 3.84281C18.4491 3.95442 18.6686 4.11439 18.8248 4.32272ZM6.94985 4.34504C6.92008 4.44177 6.92752 4.52547 6.97217 4.59616C7.01681 4.66684 7.09121 4.70218 7.19538 4.70218H13.9811C14.0778 4.70218 14.1727 4.66684 14.2657 4.59616C14.3587 4.52547 14.4201 4.44177 14.4498 4.34504L14.6842 3.63076C14.714 3.53403 14.7065 3.45032 14.6619 3.37964C14.6173 3.30896 14.5429 3.27361 14.4387 3.27361H7.65297C7.55624 3.27361 7.46138 3.30896 7.36837 3.37964C7.27537 3.45032 7.21398 3.53403 7.18422 3.63076L6.94985 4.34504ZM6.02351 7.20218C5.99374 7.29891 6.00118 7.38262 6.04583 7.4533C6.09047 7.52398 6.16488 7.55933 6.26904 7.55933H13.0548C13.1515 7.55933 13.2463 7.52398 13.3394 7.4533C13.4324 7.38262 13.4937 7.29891 13.5235 7.20218L13.7579 6.4879C13.7876 6.39117 13.7802 6.30747 13.7356 6.23678C13.6909 6.1661 13.6165 6.13076 13.5123 6.13076H6.72663C6.62991 6.13076 6.53504 6.1661 6.44203 6.23678C6.34903 6.30747 6.28764 6.39117 6.25788 6.4879L6.02351 7.20218Z" fill="#355C7D"/>
</svg>
