<svg width="13" height="14" viewBox="0 0 13 14" fill="none" xmlns="http://www.w3.org/2000/svg">
<path d="M11.4229 10.2378C11.4229 10.0295 11.3499 9.85238 11.2041 9.70654L9.5791 8.08154C9.43327 7.93571 9.25618 7.86279 9.04785 7.86279C8.8291 7.86279 8.6416 7.94613 8.48535 8.11279C8.50098 8.12842 8.55046 8.1766 8.63379 8.25732C8.71712 8.33805 8.77311 8.39404 8.80176 8.42529C8.8304 8.45654 8.86947 8.50602 8.91895 8.57373C8.96842 8.64144 9.00228 8.70785 9.02051 8.77295C9.03874 8.83805 9.04785 8.90967 9.04785 8.98779C9.04785 9.19613 8.97493 9.37321 8.8291 9.51904C8.68327 9.66488 8.50618 9.73779 8.29785 9.73779C8.21973 9.73779 8.14811 9.72868 8.08301 9.71045C8.0179 9.69222 7.9515 9.65837 7.88379 9.60889C7.81608 9.55941 7.7666 9.52035 7.73535 9.4917C7.7041 9.46305 7.64811 9.40706 7.56738 9.32373C7.48665 9.2404 7.43848 9.19092 7.42285 9.17529C7.25098 9.33675 7.16504 9.52686 7.16504 9.74561C7.16504 9.95394 7.23796 10.131 7.38379 10.2769L8.99316 11.894C9.13379 12.0347 9.31087 12.105 9.52441 12.105C9.73275 12.105 9.90983 12.0373 10.0557 11.9019L11.2041 10.7612C11.3499 10.6154 11.4229 10.4409 11.4229 10.2378ZM5.93066 4.72998C5.93066 4.52165 5.85775 4.34456 5.71191 4.19873L4.10254 2.58154C3.95671 2.43571 3.77962 2.36279 3.57129 2.36279C3.36816 2.36279 3.19108 2.43311 3.04004 2.57373L1.8916 3.71436C1.74577 3.86019 1.67285 4.03467 1.67285 4.23779C1.67285 4.44613 1.74577 4.62321 1.8916 4.76904L3.5166 6.39404C3.65723 6.53467 3.83431 6.60498 4.04785 6.60498C4.2666 6.60498 4.4541 6.52425 4.61035 6.36279C4.59473 6.34717 4.54525 6.29899 4.46191 6.21826C4.37858 6.13753 4.32259 6.08154 4.29395 6.05029C4.2653 6.01904 4.22624 5.96956 4.17676 5.90186C4.12728 5.83415 4.09342 5.76774 4.0752 5.70264C4.05697 5.63753 4.04785 5.56592 4.04785 5.48779C4.04785 5.27946 4.12077 5.10238 4.2666 4.95654C4.41244 4.81071 4.58952 4.73779 4.79785 4.73779C4.87598 4.73779 4.94759 4.74691 5.0127 4.76514C5.0778 4.78337 5.14421 4.81722 5.21191 4.8667C5.27962 4.91618 5.3291 4.95524 5.36035 4.98389C5.3916 5.01253 5.44759 5.06852 5.52832 5.15186C5.60905 5.23519 5.65723 5.28467 5.67285 5.30029C5.84473 5.13883 5.93066 4.94873 5.93066 4.72998ZM12.2666 8.64404C12.7041 9.08154 12.9229 9.61279 12.9229 10.2378C12.9229 10.8628 12.7015 11.3914 12.2588 11.8237L11.1104 12.9644C10.6781 13.3966 10.1494 13.6128 9.52441 13.6128C8.89421 13.6128 8.36296 13.3914 7.93066 12.9487L6.32129 11.3315C5.889 10.8993 5.67285 10.3706 5.67285 9.74561C5.67285 9.10498 5.90202 8.56071 6.36035 8.11279L5.67285 7.42529C5.22494 7.88363 4.68327 8.11279 4.04785 8.11279C3.42285 8.11279 2.8916 7.89404 2.4541 7.45654L0.829102 5.83154C0.391602 5.39404 0.172852 4.86279 0.172852 4.23779C0.172852 3.61279 0.394206 3.08415 0.836914 2.65186L1.98535 1.51123C2.41764 1.07894 2.94629 0.862793 3.57129 0.862793C4.2015 0.862793 4.73275 1.08415 5.16504 1.52686L6.77441 3.14404C7.20671 3.57633 7.42285 4.10498 7.42285 4.72998C7.42285 5.37061 7.19369 5.91488 6.73535 6.36279L7.42285 7.05029C7.87077 6.59196 8.41243 6.36279 9.04785 6.36279C9.67285 6.36279 10.2041 6.58154 10.6416 7.01904L12.2666 8.64404Z" fill="#86999B"/>
</svg>
