<svg width="17" height="15" viewBox="0 0 17 15" fill="none" xmlns="http://www.w3.org/2000/svg">
<path d="M15.8165 3.36719C15.8165 3.36719 15.9951 3.58669 16.3522 4.02568C16.7094 4.46467 16.8879 5.20202 16.8879 6.23773C16.8879 7.27345 16.5308 8.23029 15.8165 9.10827C15.1022 9.98624 14.132 10.6797 12.9058 11.1886C11.6796 11.6976 10.3403 11.952 8.88794 11.952C8.47127 11.952 8.03973 11.9282 7.5933 11.8806C6.41473 12.9223 5.04568 13.6425 3.48615 14.0413C3.19449 14.1246 2.8552 14.1901 2.4683 14.2377C2.36711 14.2496 2.27633 14.2229 2.19598 14.1574C2.11562 14.0919 2.06353 14.0056 2.03973 13.8984V13.8895C2.02187 13.8657 2.02038 13.83 2.03526 13.7824C2.05014 13.7348 2.05609 13.705 2.05312 13.6931C2.05014 13.6812 2.06353 13.6529 2.0933 13.6083C2.12306 13.5636 2.14092 13.5368 2.14687 13.5279C2.15282 13.519 2.17365 13.4937 2.20937 13.452C2.24508 13.4104 2.26889 13.3836 2.2808 13.3717C2.32246 13.324 2.41473 13.2214 2.55758 13.0636C2.70044 12.9059 2.80312 12.7928 2.86562 12.7243C2.92812 12.6559 3.02038 12.5383 3.1424 12.3717C3.26443 12.205 3.36115 12.0532 3.43258 11.9163C3.50401 11.7794 3.58437 11.6038 3.67365 11.3895C3.76294 11.1752 3.84032 10.949 3.9058 10.7109C2.97127 10.1812 2.23467 9.52642 1.69598 8.74666C1.15728 7.9669 0.887939 7.13059 0.887939 6.23773C0.887939 5.46392 1.09925 4.72434 1.52187 4.01898C1.94449 3.31362 2.51294 2.70499 3.22723 2.19309C3.94151 1.68118 4.7927 1.27493 5.7808 0.974338C6.76889 0.673742 7.80461 0.523444 8.88794 0.523444C10.3403 0.523444 11.6796 0.777909 12.9058 1.28684C14.132 1.79577 15.1022 2.48922 15.8165 3.36719Z" fill="white"/>
</svg>
