<svg width="20" height="18" viewBox="0 0 20 18" fill="none" xmlns="http://www.w3.org/2000/svg">
<path d="M6.08402 8.84281C5.53342 7.63745 5.25813 6.25724 5.25813 4.70218H2.40098V5.77361C2.40098 6.35397 2.75255 6.95665 3.45567 7.58165C4.1588 8.20665 5.03491 8.62704 6.08402 8.84281ZM18.1153 5.77361V4.70218H15.2581C15.2581 6.25724 14.9828 7.63745 14.4322 8.84281C15.4813 8.62704 16.3575 8.20665 17.0606 7.58165C17.7637 6.95665 18.1153 6.35397 18.1153 5.77361ZM19.5438 4.34504V5.77361C19.5438 6.30189 19.3895 6.83388 19.0807 7.36959C18.7719 7.90531 18.3552 8.38894 17.8307 8.82049C17.3061 9.25204 16.6625 9.61476 15.8999 9.90866C15.1372 10.2026 14.3355 10.3681 13.4947 10.4053C13.1822 10.8071 12.8288 11.1605 12.4345 11.4656C12.1517 11.7186 11.9564 11.9883 11.8485 12.2747C11.7406 12.5612 11.6867 12.8941 11.6867 13.2736C11.6867 13.6754 11.8002 14.0139 12.0271 14.2892C12.254 14.5645 12.6168 14.7022 13.1153 14.7022C13.6733 14.7022 14.17 14.8715 14.6052 15.21C15.0405 15.5485 15.2581 15.9745 15.2581 16.4879V17.2022C15.2581 17.3063 15.2246 17.3919 15.1577 17.4589C15.0907 17.5258 15.0052 17.5593 14.901 17.5593H5.61527C5.5111 17.5593 5.42554 17.5258 5.35857 17.4589C5.29161 17.3919 5.25813 17.3063 5.25813 17.2022V16.4879C5.25813 15.9745 5.47576 15.5485 5.91103 15.21C6.3463 14.8715 6.84295 14.7022 7.40098 14.7022C7.8995 14.7022 8.26222 14.5645 8.48915 14.2892C8.71609 14.0139 8.82956 13.6754 8.82956 13.2736C8.82956 12.8941 8.77561 12.5612 8.66772 12.2747C8.55984 11.9883 8.36453 11.7186 8.08179 11.4656C7.68744 11.1605 7.33402 10.8071 7.02152 10.4053C6.18075 10.3681 5.37903 10.2026 4.61639 9.90866C3.85374 9.61476 3.21014 9.25204 2.68558 8.82049C2.16103 8.38894 1.74436 7.90531 1.43558 7.36959C1.1268 6.83388 0.972412 6.30189 0.972412 5.77361V4.34504C0.972412 4.04742 1.07658 3.79445 1.28491 3.58611C1.49325 3.37778 1.74622 3.27361 2.04384 3.27361H5.25813V2.20218C5.25813 1.71111 5.43298 1.29073 5.78268 0.941023C6.13238 0.591322 6.55277 0.41647 7.04384 0.41647H13.4724C13.9635 0.41647 14.3839 0.591322 14.7336 0.941023C15.0833 1.29073 15.2581 1.71111 15.2581 2.20218V3.27361H18.4724C18.77 3.27361 19.023 3.37778 19.2313 3.58611C19.4397 3.79445 19.5438 4.04742 19.5438 4.34504Z" fill="#355C7D"/>
</svg>
