<svg width="20" height="18" viewBox="0 0 20 18" fill="none" xmlns="http://www.w3.org/2000/svg">
<path d="M3.11935 1.84504C3.11935 2.38076 2.88125 2.78998 2.40506 3.07272V17.2022C2.40506 17.2989 2.36972 17.3826 2.29904 17.4533C2.22835 17.524 2.14465 17.5593 2.04792 17.5593H1.33364C1.23691 17.5593 1.1532 17.524 1.08252 17.4533C1.01184 17.3826 0.976493 17.2989 0.976493 17.2022V3.07272C0.500302 2.78998 0.262207 2.38076 0.262207 1.84504C0.262207 1.4507 0.401716 1.11402 0.680734 0.834997C0.959752 0.555979 1.29643 0.41647 1.69078 0.41647C2.08512 0.41647 2.42181 0.555979 2.70082 0.834997C2.97984 1.11402 3.11935 1.4507 3.11935 1.84504ZM19.5479 2.55933V11.075C19.5479 11.261 19.5014 11.4042 19.4084 11.5046C19.3154 11.6051 19.1685 11.7074 18.9676 11.8116C17.3679 12.6747 15.9951 13.1062 14.8493 13.1062C14.3954 13.1062 13.9359 13.0244 13.4709 12.8607C13.0059 12.697 12.6022 12.5184 12.26 12.325C11.9177 12.1315 11.488 11.9529 10.9709 11.7892C10.4538 11.6255 9.92367 11.5437 9.38051 11.5437C7.95194 11.5437 6.22575 12.0869 4.20194 13.1732C4.07545 13.2401 3.95268 13.2736 3.83364 13.2736C3.64018 13.2736 3.47277 13.2029 3.3314 13.0616C3.19003 12.9202 3.11935 12.7528 3.11935 12.5593V4.27808C3.11935 4.03998 3.23468 3.83537 3.46533 3.66424C3.62158 3.56007 3.91548 3.4001 4.34703 3.18433C6.10298 2.29147 7.6692 1.84504 9.04569 1.84504C9.84182 1.84504 10.5859 1.95293 11.2778 2.1687C11.9698 2.38448 12.7845 2.71186 13.722 3.15084C14.0048 3.29221 14.3321 3.3629 14.7042 3.3629C15.106 3.3629 15.5431 3.28477 16.0156 3.12852C16.488 2.97227 16.8973 2.79742 17.2432 2.60397C17.5892 2.41052 17.9166 2.23567 18.2254 2.07942C18.5342 1.92317 18.7369 1.84504 18.8336 1.84504C19.0271 1.84504 19.1945 1.91573 19.3359 2.05709C19.4772 2.19846 19.5479 2.36587 19.5479 2.55933Z" fill="#355C7D"/>
</svg>
