<svg width="16" height="13" viewBox="0 0 16 13" fill="none" xmlns="http://www.w3.org/2000/svg">
<path d="M5.13037 3.17529C5.13037 3.17529 5.20329 3.24821 5.34912 3.39404C5.49495 3.53988 5.56787 3.82113 5.56787 4.23779C5.56787 4.65446 5.42204 5.00863 5.13037 5.30029C4.8387 5.59196 4.48454 5.73779 4.06787 5.73779C3.6512 5.73779 3.29704 5.59196 3.00537 5.30029C2.7137 5.00863 2.56787 4.65446 2.56787 4.23779C2.56787 3.82113 2.7137 3.46696 3.00537 3.17529C3.29704 2.88363 3.6512 2.73779 4.06787 2.73779C4.48454 2.73779 4.8387 2.88363 5.13037 3.17529ZM13.5679 7.23779V10.7378H2.56787V9.23779L5.06787 6.73779L6.31787 7.98779L10.3179 3.98779L13.5679 7.23779ZM14.3179 1.73779H1.81787C1.75016 1.73779 1.69157 1.76253 1.64209 1.81201C1.59261 1.86149 1.56787 1.92008 1.56787 1.98779V11.4878C1.56787 11.5555 1.59261 11.6141 1.64209 11.6636C1.69157 11.7131 1.75016 11.7378 1.81787 11.7378H14.3179C14.3856 11.7378 14.4442 11.7131 14.4937 11.6636C14.5431 11.6141 14.5679 11.5555 14.5679 11.4878V1.98779C14.5679 1.92008 14.5431 1.86149 14.4937 1.81201C14.4442 1.76253 14.3856 1.73779 14.3179 1.73779ZM15.5679 1.98779V11.4878C15.5679 11.8315 15.4455 12.1258 15.2007 12.3706C14.9559 12.6154 14.6616 12.7378 14.3179 12.7378H1.81787C1.47412 12.7378 1.17985 12.6154 0.935059 12.3706C0.690267 12.1258 0.567871 11.8315 0.567871 11.4878V1.98779C0.567871 1.64404 0.690267 1.34977 0.935059 1.10498C1.17985 0.860188 1.47412 0.737793 1.81787 0.737793H14.3179C14.6616 0.737793 14.9559 0.860188 15.2007 1.10498C15.4455 1.34977 15.5679 1.64404 15.5679 1.98779Z" fill="#86999B"/>
</svg>
