<svg width="11" height="16" viewBox="0 0 11 16" fill="none" xmlns="http://www.w3.org/2000/svg">
<path d="M7.13826 7.02623C7.13826 7.02623 7.25672 6.90765 7.49364 6.67048C7.73056 6.43331 7.84902 5.97954 7.84902 5.30915C7.84902 4.63876 7.6121 4.06641 7.13826 3.59208C6.66441 3.11775 6.09264 2.88058 5.42295 2.88058C4.75325 2.88058 4.18148 3.11775 3.70764 3.59208C3.23379 4.06641 2.99687 4.63876 2.99687 5.30915C2.99687 5.97954 3.23379 6.5519 3.70764 7.02623C4.18148 7.50056 4.75325 7.73772 5.42295 7.73772C6.09264 7.73772 6.66441 7.50056 7.13826 7.02623ZM10.2751 5.30915C10.2751 5.99851 10.1708 6.56455 9.96236 7.00725L6.51278 14.3499C6.4117 14.5586 6.26165 14.723 6.06263 14.8432C5.86362 14.9634 5.65039 15.0234 5.42295 15.0234C5.1955 15.0234 4.98227 14.9634 4.78326 14.8432C4.58425 14.723 4.43735 14.5586 4.34259 14.3499L0.883537 7.00725C0.675046 6.56455 0.570801 5.99851 0.570801 5.30915C0.570801 3.96838 1.04464 2.82366 1.99233 1.875C2.94001 0.926339 4.08355 0.452009 5.42295 0.452009C6.76234 0.452009 7.90588 0.926339 8.85357 1.875C9.80125 2.82366 10.2751 3.96838 10.2751 5.30915Z" fill="#86999B"/>
</svg>
