<svg width="18" height="15" viewBox="0 0 18 15" fill="none" xmlns="http://www.w3.org/2000/svg">
<path d="M17.5679 4.97321V12.5056C17.5679 12.923 17.4194 13.2803 17.1223 13.5776C16.8252 13.8748 16.4681 14.0234 16.0509 14.0234H2.09485C1.67768 14.0234 1.32056 13.8748 1.02349 13.5776C0.726417 13.2803 0.577881 12.923 0.577881 12.5056V4.97321C0.855991 5.28311 1.17519 5.55822 1.53547 5.79855C3.82355 7.35435 5.39425 8.44531 6.24754 9.07143C6.60782 9.33705 6.90015 9.54418 7.12453 9.6928C7.34892 9.84142 7.64757 9.99321 8.02049 10.1482C8.39341 10.3031 8.74105 10.3806 9.06341 10.3806H9.07289H9.08237C9.40472 10.3806 9.75236 10.3031 10.1253 10.1482C10.4982 9.99321 10.7969 9.84142 11.0212 9.6928C11.2456 9.54418 11.538 9.33705 11.8982 9.07143C12.9728 8.29353 14.5466 7.20257 16.6198 5.79855C16.9801 5.5519 17.2961 5.27679 17.5679 4.97321ZM17.5679 2.18415C17.5679 2.68378 17.413 3.16127 17.1033 3.61663C16.7936 4.07199 16.408 4.46094 15.9466 4.78348C13.5701 6.43415 12.091 7.46187 11.5095 7.86663C11.4463 7.9109 11.312 8.00735 11.1066 8.15597C10.9011 8.30459 10.7305 8.42476 10.5946 8.51646C10.4587 8.60817 10.2944 8.71094 10.1016 8.82478C9.9088 8.93862 9.72708 9.024 9.55642 9.08091C9.38576 9.13783 9.22774 9.16629 9.08237 9.16629H9.07289H9.06341C8.91803 9.16629 8.76001 9.13783 8.58935 9.08091C8.4187 9.024 8.23698 8.93862 8.04419 8.82478C7.85141 8.71094 7.68708 8.60817 7.55118 8.51646C7.41529 8.42476 7.24463 8.30459 7.03921 8.15597C6.83378 8.00735 6.69947 7.9109 6.63626 7.86663C6.06108 7.46187 5.23307 6.88477 4.15223 6.13532C3.07139 5.38588 2.42352 4.93527 2.20862 4.78348C1.81674 4.51786 1.44698 4.15262 1.09934 3.68778C0.7517 3.22293 0.577881 2.79129 0.577881 2.39286C0.577881 1.89955 0.709035 1.48847 0.971344 1.1596C1.23365 0.830729 1.60815 0.666294 2.09485 0.666294H16.0509C16.4618 0.666294 16.8173 0.814918 17.1175 1.11217C17.4178 1.40941 17.5679 1.76674 17.5679 2.18415Z" fill="#86999B"/>
</svg>
