<svg width="12" height="13" viewBox="0 0 12 13" fill="none" xmlns="http://www.w3.org/2000/svg">
<path d="M11.0479 10.2144C11.0479 10.8394 10.8577 11.3328 10.4775 11.6948C10.0973 12.0568 9.59212 12.2378 8.96191 12.2378H2.13379C1.50358 12.2378 0.998372 12.0568 0.618164 11.6948C0.237956 11.3328 0.0478516 10.8394 0.0478516 10.2144C0.0478516 9.93831 0.0569661 9.66878 0.0751953 9.40576C0.0934245 9.14274 0.129883 8.85889 0.18457 8.5542C0.239258 8.24951 0.308268 7.96696 0.391602 7.70654C0.474935 7.44613 0.586914 7.19222 0.727539 6.94482C0.868164 6.69743 1.02962 6.48649 1.21191 6.31201C1.39421 6.13753 1.61686 5.99821 1.87988 5.89404C2.1429 5.78988 2.43327 5.73779 2.75098 5.73779C2.79785 5.73779 2.90723 5.79378 3.0791 5.90576C3.25098 6.01774 3.44499 6.14274 3.66113 6.28076C3.87728 6.41878 4.15853 6.54378 4.50488 6.65576C4.85124 6.76774 5.19889 6.82373 5.54785 6.82373C5.89681 6.82373 6.24447 6.76774 6.59082 6.65576C6.93717 6.54378 7.21842 6.41878 7.43457 6.28076C7.65072 6.14274 7.84473 6.01774 8.0166 5.90576C8.18848 5.79378 8.29785 5.73779 8.34473 5.73779C8.66243 5.73779 8.9528 5.78988 9.21582 5.89404C9.47884 5.99821 9.7015 6.13753 9.88379 6.31201C10.0661 6.48649 10.2275 6.69743 10.3682 6.94482C10.5088 7.19222 10.6208 7.44613 10.7041 7.70654C10.7874 7.96696 10.8564 8.24951 10.9111 8.5542C10.9658 8.85889 11.0023 9.14274 11.0205 9.40576C11.0387 9.66878 11.0479 9.93831 11.0479 10.2144ZM7.66895 1.1167C7.66895 1.1167 7.81543 1.26318 8.1084 1.55615C8.40137 1.84912 8.54785 2.40967 8.54785 3.23779C8.54785 4.06592 8.25488 4.77295 7.66895 5.35889C7.08301 5.94482 6.37598 6.23779 5.54785 6.23779C4.71973 6.23779 4.0127 5.94482 3.42676 5.35889C2.84082 4.77295 2.54785 4.06592 2.54785 3.23779C2.54785 2.40967 2.84082 1.70264 3.42676 1.1167C4.0127 0.530762 4.71973 0.237793 5.54785 0.237793C6.37598 0.237793 7.08301 0.530762 7.66895 1.1167Z" fill="#86999B"/>
</svg>
