<svg width="14" height="25" viewBox="0 0 14 25" fill="none" xmlns="http://www.w3.org/2000/svg">
<path d="M13.7588 11.9487C13.915 12.105 13.9932 12.2847 13.9932 12.4878C13.9932 12.6909 13.915 12.8706 13.7588 13.0269L2.83691 23.9487C2.68066 24.105 2.50098 24.1831 2.29785 24.1831C2.09473 24.1831 1.91504 24.105 1.75879 23.9487L0.586914 22.7769C0.430664 22.6206 0.352539 22.4409 0.352539 22.2378C0.352539 22.0347 0.430664 21.855 0.586914 21.6987L9.79785 12.4878L0.586914 3.27686C0.430664 3.12061 0.352539 2.94092 0.352539 2.73779C0.352539 2.53467 0.430664 2.35498 0.586914 2.19873L1.75879 1.02686C1.91504 0.870605 2.09473 0.79248 2.29785 0.79248C2.50098 0.79248 2.68066 0.870605 2.83691 1.02686L13.7588 11.9487Z" fill="#355C7D"/>
</svg>
