<svg width="14" height="14" viewBox="0 0 14 14" fill="none" xmlns="http://www.w3.org/2000/svg">
<path d="M13.9265 11.001C13.9265 11.1718 13.8949 11.3947 13.8316 11.6699C13.7684 11.945 13.702 12.1616 13.6324 12.3197C13.4996 12.6359 13.1138 12.9711 12.475 13.3253C11.8805 13.6478 11.2924 13.8091 10.7105 13.8091C10.5398 13.8091 10.3737 13.798 10.2125 13.7759C10.0512 13.7537 9.86937 13.7142 9.66699 13.6573C9.46461 13.6004 9.31441 13.5545 9.21638 13.5197C9.11835 13.485 8.94285 13.4201 8.68987 13.3253C8.4369 13.2304 8.28195 13.1735 8.22503 13.1545C7.60524 12.9332 7.05185 12.6707 6.56487 12.3671C5.75535 11.8675 4.91895 11.186 4.05566 10.3228C3.19238 9.45947 2.51093 8.62307 2.0113 7.81355C1.70773 7.32657 1.44527 6.77318 1.22391 6.15339C1.20494 6.09647 1.14802 5.94152 1.05315 5.68855C0.958287 5.43557 0.893462 5.26007 0.858677 5.16204C0.823893 5.06401 0.778041 4.91381 0.721122 4.71143C0.664202 4.50904 0.624674 4.32722 0.602539 4.16595C0.580404 4.00467 0.569336 3.83866 0.569336 3.6679C0.569336 3.08605 0.730608 2.49788 1.05315 1.90339C1.40732 1.26462 1.74251 0.878837 2.05873 0.746024C2.21684 0.676455 2.43345 0.610049 2.70857 0.546805C2.98368 0.483561 3.20661 0.451939 3.37737 0.451939C3.46591 0.451939 3.53232 0.461426 3.57659 0.480399C3.69043 0.518345 3.85803 0.758673 4.07938 1.20138C4.14895 1.32154 4.24382 1.4923 4.36398 1.71366C4.48414 1.93501 4.59482 2.13581 4.69601 2.31606C4.7972 2.4963 4.89523 2.66548 4.9901 2.82359C5.00907 2.84889 5.06441 2.92794 5.15611 3.06076C5.24781 3.19357 5.3158 3.30583 5.36007 3.39753C5.40434 3.48923 5.42648 3.57936 5.42648 3.6679C5.42648 3.79439 5.33636 3.9525 5.15611 4.14223C4.97586 4.33196 4.77981 4.50588 4.56794 4.66399C4.35607 4.8221 4.16002 4.9897 3.97977 5.16678C3.79953 5.34387 3.7094 5.48933 3.7094 5.60317C3.7094 5.66009 3.72521 5.73124 3.75684 5.81662C3.78846 5.90199 3.81534 5.96682 3.83747 6.01109C3.85961 6.05536 3.90388 6.13125 3.97028 6.23877C4.03669 6.34628 4.07306 6.40637 4.07938 6.41901C4.56004 7.28546 5.11026 8.02858 5.73005 8.64837C6.34984 9.26816 7.09296 9.81838 7.9594 10.299C7.97205 10.3054 8.03213 10.3417 8.13965 10.4081C8.24716 10.4745 8.32306 10.5188 8.36733 10.5409C8.4116 10.5631 8.47642 10.59 8.5618 10.6216C8.64718 10.6532 8.71833 10.669 8.77525 10.669C8.88909 10.669 9.03455 10.5789 9.21164 10.3986C9.38872 10.2184 9.55632 10.0223 9.71443 9.81048C9.87254 9.59861 10.0465 9.40255 10.2362 9.22231C10.4259 9.04206 10.584 8.95194 10.7105 8.95194C10.7991 8.95194 10.8892 8.97407 10.9809 9.01835C11.0726 9.06262 11.1848 9.1306 11.3177 9.22231C11.4505 9.31401 11.5295 9.36935 11.5548 9.38832C11.7129 9.48319 11.8821 9.58122 12.0624 9.68241C12.2426 9.7836 12.4434 9.89428 12.6648 10.0144C12.8861 10.1346 13.0569 10.2295 13.177 10.299C13.6197 10.5204 13.8601 10.688 13.898 10.8018C13.917 10.8461 13.9265 10.9125 13.9265 11.001Z" fill="#86999B"/>
</svg>
