<svg width="10" height="14" viewBox="0 0 10 14" fill="none" xmlns="http://www.w3.org/2000/svg">
<path d="M4.18774 5.98779V2.48779C4.18774 2.41488 4.16431 2.35498 4.11743 2.30811C4.07056 2.26123 4.01066 2.23779 3.93774 2.23779C3.86483 2.23779 3.80493 2.26123 3.75806 2.30811C3.71118 2.35498 3.68774 2.41488 3.68774 2.48779V5.98779C3.68774 6.06071 3.71118 6.12061 3.75806 6.16748C3.80493 6.21436 3.86483 6.23779 3.93774 6.23779C4.01066 6.23779 4.07056 6.21436 4.11743 6.16748C4.16431 6.12061 4.18774 6.06071 4.18774 5.98779ZM9.43774 8.73779C9.43774 8.87321 9.38826 8.9904 9.28931 9.08936C9.19035 9.18831 9.07316 9.23779 8.93774 9.23779H5.58618L5.18774 13.0112C5.17733 13.0737 5.14998 13.1271 5.10571 13.1714C5.06144 13.2157 5.00806 13.2378 4.94556 13.2378H4.93774C4.79712 13.2378 4.71379 13.1675 4.68774 13.0269L4.09399 9.23779H0.937744C0.802327 9.23779 0.68514 9.18831 0.586182 9.08936C0.487223 8.9904 0.437744 8.87321 0.437744 8.73779C0.437744 8.09717 0.642171 7.52035 1.05103 7.00732C1.45988 6.4943 1.92212 6.23779 2.43774 6.23779V2.23779C2.16691 2.23779 1.93254 2.13883 1.73462 1.94092C1.5367 1.743 1.43774 1.50863 1.43774 1.23779C1.43774 0.96696 1.5367 0.732585 1.73462 0.534668C1.93254 0.336751 2.16691 0.237793 2.43774 0.237793H7.43774C7.70858 0.237793 7.94295 0.336751 8.14087 0.534668C8.33879 0.732585 8.43774 0.96696 8.43774 1.23779C8.43774 1.50863 8.33879 1.743 8.14087 1.94092C7.94295 2.13883 7.70858 2.23779 7.43774 2.23779V6.23779C7.95337 6.23779 8.41561 6.4943 8.82446 7.00732C9.23332 7.52035 9.43774 8.09717 9.43774 8.73779Z" fill="#86999B"/>
</svg>
