<svg width="14" height="25" viewBox="0 0 14 25" fill="none" xmlns="http://www.w3.org/2000/svg">
<path d="M13.5088 2.19873C13.665 2.35498 13.7432 2.53467 13.7432 2.73779C13.7432 2.94092 13.665 3.12061 13.5088 3.27686L4.29785 12.4878L13.5088 21.6987C13.665 21.855 13.7432 22.0347 13.7432 22.2378C13.7432 22.4409 13.665 22.6206 13.5088 22.7769L12.3369 23.9487C12.1807 24.105 12.001 24.1831 11.7979 24.1831C11.5947 24.1831 11.415 24.105 11.2588 23.9487L0.336914 13.0269C0.180664 12.8706 0.102539 12.6909 0.102539 12.4878C0.102539 12.2847 0.180664 12.105 0.336914 11.9487L11.2588 1.02686C11.415 0.870605 11.5947 0.79248 11.7979 0.79248C12.001 0.79248 12.1807 0.870605 12.3369 1.02686L13.5088 2.19873Z" fill="#355C7D"/>
</svg>
