<svg width="17" height="14" viewBox="0 0 17 14" fill="none" xmlns="http://www.w3.org/2000/svg">
<path d="M16.7632 2.33615C16.3146 2.9924 15.7721 3.55155 15.136 4.0136C15.1427 4.10735 15.146 4.24798 15.146 4.43548C15.146 5.30601 15.0188 6.17487 14.7643 7.04206C14.5099 7.90925 14.1232 8.74128 13.6042 9.53816C13.0852 10.335 12.4675 11.0398 11.7509 11.6526C11.0344 12.2653 10.1706 12.7541 9.15942 13.1191C8.14826 13.484 7.06679 13.6665 5.915 13.6665C4.10027 13.6665 2.43956 13.181 0.932861 12.21C1.16724 12.2368 1.4284 12.2502 1.71634 12.2502C3.22304 12.2502 4.56567 11.7882 5.74425 10.864C5.04112 10.8507 4.41166 10.6347 3.85585 10.2162C3.30005 9.79764 2.91835 9.2636 2.71076 8.61405C2.93175 8.64753 3.13599 8.66427 3.32349 8.66427C3.61143 8.66427 3.89603 8.62744 4.17728 8.55378C3.42728 8.39976 2.80619 8.02644 2.314 7.4338C1.82181 6.84117 1.57572 6.15311 1.57572 5.36963V5.32945C2.03108 5.58391 2.51991 5.72119 3.04224 5.74128C2.60027 5.44664 2.24871 5.06159 1.98755 4.58615C1.72639 4.1107 1.59581 3.59508 1.59581 3.03927C1.59581 2.44999 1.74313 1.90423 2.03777 1.40199C2.84804 2.39976 3.83409 3.19831 4.99592 3.79764C6.15775 4.39697 7.40161 4.73012 8.7275 4.79708C8.67393 4.54262 8.64715 4.29485 8.64715 4.05378C8.64715 3.15646 8.96355 2.39139 9.59637 1.75858C10.2292 1.12577 10.9942 0.809361 11.8916 0.809361C12.8291 0.809361 13.6192 1.15088 14.2621 1.83391C14.992 1.69329 15.6784 1.43213 16.3213 1.05043C16.0735 1.82052 15.598 2.4165 14.8949 2.83838C15.5177 2.77141 16.1405 2.604 16.7632 2.33615Z" fill="#86999B"/>
</svg>
